<svg xmlns="http://www.w3.org/2000/svg" viewBox="0 0 287.63 263.34"><defs><style>.cls-1{isolation:isolate;}.cls-2{fill:#0f262e;}.cls-11,.cls-14,.cls-3{fill:#fff;}.cls-3{opacity:0.46;}.cls-4{fill:#777;}.cls-5{fill:#fff9f3;}.cls-6{fill:#f5c70f;}.cls-7{fill:#a87cea;}.cls-8{fill:#695da8;}.cls-27,.cls-9{fill:#3d312c;}.cls-10{fill:#fedb5c;}.cls-11{opacity:0.66;}.cls-12{fill:#ff9cc4;}.cls-13{fill:#fc83ba;}.cls-15{fill:#db774f;}.cls-16{fill:#b76346;}.cls-17{fill:#de9371;}.cls-18{fill:#edc29f;}.cls-19,.cls-24,.cls-25{fill:none;}.cls-20{fill:#22726e;}.cls-21{fill:#443244;}.cls-22{fill:#2d1e2d;}.cls-23{fill:#654466;}.cls-24,.cls-25{stroke:#3d312c;stroke-linecap:round;stroke-linejoin:round;}.cls-24{stroke-width:2.02px;}.cls-25{stroke-width:1.9px;}.cls-26{fill:#bcbcbc;}.cls-27{opacity:0.21;mix-blend-mode:multiply;}.cls-28{fill:#b6ffff;}.cls-29{fill:#ffeb52;}</style></defs><title>no-course</title><g class="cls-1"><g id="Layer_2" data-name="Layer 2"><g id="OBJECTS"><path class="cls-2" d="M199.75,65.24V49.06a2.7,2.7,0,0,0-2.7-2.69H152.12a2.7,2.7,0,0,0-2.7,2.69V65.24Z"/><rect class="cls-2" x="166.72" y="26.15" width="15.73" height="33.25" rx="7.86"/><polygon class="cls-3" points="149.42 65.24 68.72 228.56 276.04 228.56 199.75 65.24 149.42 65.24"/><path class="cls-4" d="M187.78,229.92H157A1.94,1.94,0,0,1,155,228h0a1.93,1.93,0,0,1,1.93-1.92h30.81a1.93,1.93,0,0,1,1.93,1.92h0A1.94,1.94,0,0,1,187.78,229.92Z"/><path class="cls-5" d="M202.24,114.54a25.13,25.13,0,1,1,5.4,5l-9.68,5.2Z"/><circle class="cls-6" cx="235.14" cy="100.54" r="3.41"/><path class="cls-6" d="M218.07,100.88a3.42,3.42,0,1,0,3.41-3.41A3.42,3.42,0,0,0,218.07,100.88Z"/><path class="cls-6" d="M204.82,99.67a3.42,3.42,0,1,0,3.42-3.41A3.41,3.41,0,0,0,204.82,99.67Z"/><path class="cls-7" d="M107.75,166.06c2,7.37-5.86,17.41-12.13,11.8-3-2.72-6-8.87-10.29-5.55-3.36,2.63-4.32,6.87-8.61,8.35-3.63,1.25-7.1.87-9.79-2-2.51-2.63-4.42-5.94-3.66-9.67,1-4.87,5-6.32,8-9.44,5.06-5.21-2.57-8.57-7-7.62-4.1.89-6.87,2.93-10,5.62-5.53,4.78-10.89,4.24-17.35.37s-8-12.24-2.87-17.9c3.06-3.38,6.91-3.22,10.52-5.35,1.89-1.11,3.55-3.67,2.78-5.76-2-5.52-10.86-4.55-13-9.78-1-2.3-1.07-4.86.49-6.83L102,162Z"/><path class="cls-8" d="M107.64,166.56c7.62-.27,14.94-10.69,7.74-15.05-3.48-2.11-10.24-3.18-8.3-8.22,1.53-4,5.31-6.13,5.47-10.67.14-3.84-1.23-7.05-4.73-8.8-3.25-1.62-7-2.49-10.32-.68-4.37,2.36-4.59,6.61-6.69,10.42-3.51,6.36-9,0-9.32-4.44-.34-4.18.8-7.43,2.47-11.19,3-6.68.88-11.66-4.71-16.7s-14-4.09-18,2.47c-2.34,3.92-1.07,7.55-2,11.62-.51,2.13-2.48,4.47-4.69,4.34-5.88-.33-7.53-9-13.16-9.62-2.48-.24-5,.39-6.4,2.46l67.1,49.69Z"/><path class="cls-8" d="M147.82,196.75h0a.82.82,0,0,1-1.14.17L34.83,114.09a.82.82,0,0,1-.17-1.14h0a.82.82,0,0,1,1.14-.17l111.85,82.83A.82.82,0,0,1,147.82,196.75Z"/><path class="cls-7" d="M106.28,207.12c3.77,5,.85,15.14-5.67,12.77-3.16-1.15-7.36-4.95-9.6-1.09-1.77,3-1.2,6.59-4,9-2.4,2.08-5.17,2.85-8.11,1.51-2.73-1.25-5.21-3.2-5.78-6.29-.74-4,1.88-6.37,3.24-9.7,2.28-5.54-4.6-5.78-7.68-3.7-2.87,2-4.36,4.36-5.92,7.38-2.77,5.36-7,6.6-13.19,5.61a9.5,9.5,0,0,1-7.7-12.84c1.31-3.53,4.31-4.59,6.42-7.33,1.11-1.43,1.6-3.9.37-5.27-3.26-3.6-9.73-.15-13-3.49a5.46,5.46,0,0,1-1.73-5.39l66.7,17.47Z"/><path class="cls-8" d="M106.34,207.53c5.76-2.55,8.17-12.78,1.32-13.91-3.32-.55-8.84.7-8.9-3.76,0-3.51,2.19-6.33.92-9.85-1.07-3-3.11-5-6.33-5.29-3-.25-6.11.23-8.12,2.65-2.62,3.15-1.49,6.47-1.93,10-.73,6-6.84,2.78-8.5-.54-1.55-3.1-1.67-5.94-1.55-9.33.21-6-2.91-9.21-8.74-11.36a9.5,9.5,0,0,0-13,7.41c-.59,3.72,1.5,6.12,2,9.54.26,1.79-.52,4.19-2.26,4.77-4.61,1.55-8.55-4.63-13-3.33a5.49,5.49,0,0,0-4.15,3.85l66.7,17.47Z"/><path class="cls-8" d="M146.42,218.32h0a.67.67,0,0,1-.82.48L34.41,189.68a.68.68,0,0,1-.48-.82h0a.69.69,0,0,1,.82-.48L145.94,217.5A.68.68,0,0,1,146.42,218.32Z"/><rect class="cls-9" x="98.85" y="134.73" width="146.6" height="94.32" rx="16.57"/><rect class="cls-10" x="104.13" y="141" width="136.24" height="81.46"/><path class="cls-11" d="M191.85,213.5c-1.63-9.44-1.76-20.41,4.06-28.55a23.8,23.8,0,0,1,11.79-8.57c6.91-2.4,13.24-1,19.65,2.14,3.29,1.61,6.44,3.5,9.78,5a27.2,27.2,0,0,0,3.24,1.23V141H166.18c-2.67,5.34-3.88,12-5.32,16.87a48.41,48.41,0,0,1-4.56,11.56,48.36,48.36,0,0,1-9.74,11.5,46.89,46.89,0,0,1-25.37,10.91,68.59,68.59,0,0,1-17.06-.2v30.82h89.79A85.15,85.15,0,0,1,191.85,213.5Z"/><path class="cls-12" d="M117.05,163.16V90.57H86.66C77.54,118.88,90.72,148.32,117.05,163.16Z"/><path class="cls-13" d="M117,163.16V90.57h30.4C156.5,118.88,143.32,148.32,117,163.16Z"/><rect class="cls-14" x="111.2" y="100.81" width="11.65" height="32.2" rx="5.82"/><circle class="cls-14" cx="117.03" cy="145" r="5.14" transform="translate(-50.98 225.59) rotate(-76.72)"/><rect class="cls-15" x="186.86" y="146.31" width="10.17" height="17.74" rx="3.35" transform="translate(383.89 310.35) rotate(180)"/><path class="cls-16" d="M196.08,146.32h-7.35a1.49,1.49,0,0,0-1.49,1.48v10.85C192.24,156,196.37,152.29,196.08,146.32Z"/><rect class="cls-15" x="147.65" y="145.93" width="10.17" height="17.74" rx="3.35"/><path class="cls-16" d="M149,146l.16,0h7.2a1.49,1.49,0,0,1,1.48,1.49v10.85C152.82,155.65,148.68,151.92,149,146Z"/><rect class="cls-17" x="163.28" y="169.46" width="17.69" height="36.66" transform="translate(344.26 375.59) rotate(180)"/><rect class="cls-18" x="163.28" y="169.46" width="9.39" height="36.66" transform="translate(335.96 375.59) rotate(180)"/><path class="cls-17" d="M154.67,150.92v-20.7a17.73,17.73,0,0,1,17.68-17.67h0A17.72,17.72,0,0,1,190,130.22v36.34a17.72,17.72,0,0,1-17.67,17.67h0a17.73,17.73,0,0,1-17.68-17.67V150.92Z"/><path class="cls-18" d="M179.29,131.24a30.31,30.31,0,0,0-6.58-.78h-.14a30.31,30.31,0,0,0-6.58.78c-6.36,1.49-9.15,7.31-9.53,14.09,0,6.26-1.93,10.08,2.86,14.32,3.2,2.84,5.12,4.54,5.55,8.94.28,2.9-.18,8.48,1.57,10.85,2.12,2.87,8.49,2.69,11.25.91,3.14-2,1.75-8.8,2.05-11.93.43-4.4,3.63-6.44,6.83-9.28,4.78-4.24,2.25-7.55,2.25-13.81C188.44,138.55,185.65,132.73,179.29,131.24Z"/><path class="cls-17" d="M166.59,160.72a2.16,2.16,0,0,0-.27,1.05,2.27,2.27,0,0,0,2.27,2.27h7.88a2.27,2.27,0,0,0,2.27-2.27,2.16,2.16,0,0,0-.27-1.05Z"/><path class="cls-17" d="M172.79,163h0a3,3,0,0,1-3-3v-6.31a3,3,0,0,1,3-3h0a3,3,0,0,1,3,3V160A3,3,0,0,1,172.79,163Z"/><line class="cls-19" x1="150.49" y1="107.45" x2="150.49" y2="107.42"/><path class="cls-14" d="M218.92,222.78a50.17,50.17,0,0,0-86.27-14l-.45.58a50.42,50.42,0,0,0-7.49,13.42Z"/><path class="cls-20" d="M211.38,209.29A50.45,50.45,0,0,0,200.59,199a33.34,33.34,0,0,0-5,3.3,32.66,32.66,0,0,0-5.88,6.48c-3.83,5.26-9.35,10-16.17,10.2a19.22,19.22,0,0,1-13-4.64c-5.73-4.91-8.39-12.33-13-18.16a50.57,50.57,0,0,0-14.88,12.56l-.45.58a50.42,50.42,0,0,0-7.49,13.42h94.21A50.39,50.39,0,0,0,211.38,209.29Z"/><path class="cls-21" d="M154.75,144.09c3.76-3.42,4.28-7.14,4.52-12.17a18.35,18.35,0,0,1,2.27-8.95c1.58-2.66,6.46-5.41,9.62-5.09V105.62c.26,5.81-8.31,8-11.88,11.69a17.76,17.76,0,0,0-4.71,8.11,34.81,34.81,0,0,0-.19,6.41Z"/><path class="cls-21" d="M190.29,144.09c-4.17-3.42-5.5-7.14-5.77-12.17A16.94,16.94,0,0,0,182,123c-1.75-2.66-7.18-5.41-10.69-5.09V105.62c-.29,5.81,9.24,8,13.21,11.69a17.48,17.48,0,0,1,5.24,8.11,32.33,32.33,0,0,1,.21,6.41Z"/><path class="cls-22" d="M156.41,146l10.17-5.91a2.39,2.39,0,0,0,.85-3.25h0a2.38,2.38,0,0,0-3.24-.86L154,141.9a2.38,2.38,0,0,0-.85,3.25h0A2.37,2.37,0,0,0,156.41,146Z"/><ellipse class="cls-21" cx="171.82" cy="121.27" rx="11.22" ry="3.58"/><path class="cls-23" d="M172.48,103.55c-4,2.07-5.57,8.36-2.6,12.59a13.88,13.88,0,0,0,9,6,8.47,8.47,0,0,0,4.89-.43,10.43,10.43,0,0,1-5.55-2,4.09,4.09,0,0,1,.38-6.1C173,110.9,171.16,106.66,172.48,103.55Z"/><path class="cls-22" d="M178.52,139.5l9.42,7a2.38,2.38,0,0,0,3.32-.48h0a2.37,2.37,0,0,0-.48-3.32l-9.42-7a2.37,2.37,0,0,0-3.32.48h0A2.37,2.37,0,0,0,178.52,139.5Z"/><polyline class="cls-24" points="163.4 149.27 167.26 152.19 163.14 154.32"/><polyline class="cls-25" points="181.34 149.42 177.72 152.17 181.59 154.17"/><path class="cls-9" d="M184.64,169.54a4.18,4.18,0,1,1-4.18-4.18A4.18,4.18,0,0,1,184.64,169.54Z"/><path class="cls-26" d="M248.52,234.54h-157a6,6,0,0,1-6-6h0a6,6,0,0,1,6-6h157a6,6,0,0,1,6,6h0A6,6,0,0,1,248.52,234.54Z"/><path class="cls-27" d="M250.37,244.84h-170a6.76,6.76,0,0,1-6.74-6.74h0a6.77,6.77,0,0,1,6.74-6.74h170a6.76,6.76,0,0,1,6.74,6.74h0A6.76,6.76,0,0,1,250.37,244.84Z"/><rect class="cls-2" x="174.16" width="2.37" height="28.43"/><circle class="cls-28" cx="14.81" cy="64.57" r="14.81"/><circle class="cls-29" cx="40.48" cy="21.54" r="8" transform="translate(10.22 55.98) rotate(-76.72)"/><circle class="cls-29" cx="274.31" cy="189.59" r="8" transform="translate(27.17 413.45) rotate(-76.82)"/><rect class="cls-14" x="61.87" y="61.2" width="41.31" height="12.65" rx="6.33"/><circle class="cls-14" cx="89.04" cy="60.83" r="10.79"/><circle class="cls-14" cx="74.71" cy="61.38" r="6.14" transform="translate(-2.2 119.99) rotate(-76.72)"/><path class="cls-14" d="M259,141.38h23.48a5.2,5.2,0,0,0,5.18-5.19h0a5.19,5.19,0,0,0-5.18-5.18H259a5.19,5.19,0,0,0-5.18,5.18h0A5.2,5.2,0,0,0,259,141.38Z"/><path class="cls-14" d="M259.12,124.45a8.85,8.85,0,1,0,12.51,0A8.85,8.85,0,0,0,259.12,124.45Z"/><circle class="cls-14" cx="277.11" cy="131.16" r="5.03"/><path class="cls-29" d="M44.18,48.32a1.78,1.78,0,1,1-1.78-1.78A1.78,1.78,0,0,1,44.18,48.32Z"/><circle class="cls-29" cx="252.09" cy="258.9" r="4.44" transform="translate(-43.84 466.26) rotate(-80.78)"/><path class="cls-29" d="M257,173.6a3.11,3.11,0,1,1,3.11,3.11A3.11,3.11,0,0,1,257,173.6Z"/><circle class="cls-28" cx="282.3" cy="226.91" r="3.55"/></g></g></g></svg>