<svg xmlns="http://www.w3.org/2000/svg" viewBox="0 0 353.72 391.84"><defs><style>.cls-1{fill:#f8931f;}.cls-2{fill:#28abe3;}.cls-3{fill:#f3d426;}</style></defs><title>logo-web</title><g id="Layer_2" data-name="Layer 2"><g id="Layer_1-2" data-name="Layer 1"><path class="cls-1" d="M71.51,354.73c0,4.6-2.76,8.57-8.14,8.57-5.19,0-7.91-3.78-7.91-8.52s3-8.51,8.15-8.51C68.45,346.27,71.51,349.66,71.51,354.73Zm-12.35,0c0,3.23,1.42,5.68,4.35,5.68,3.18,0,4.31-2.67,4.31-5.62,0-3.13-1.28-5.59-4.37-5.59S59.16,351.49,59.16,354.71Z"/><path class="cls-1" d="M98.64,363.06V346.51h4.43c2.07,3.72,5.89,10.42,6.65,12.22h0c-.19-1.73-.19-4.6-.19-7.32v-4.9h3.25v16.55h-4.21c-1.78-3.24-6-10.93-6.83-12.85h0c.11,1.45.15,4.85.15,7.81v5Z"/><path class="cls-1" d="M170.57,346.51h3.58V353h6.65v-6.45h3.58v16.55H180.8V355.9h-6.65v7.16h-3.58Z"/><path class="cls-1" d="M215.93,346.51v16.55h-3.58V346.51Z"/><path class="cls-1" d="M258.26,363.06h-2.62a8.67,8.67,0,0,1-.27-1.63c-.92,1.23-2.54,1.9-4.84,1.9-4.8,0-7.48-3.63-7.48-8.34,0-5,2.89-8.72,8.11-8.72,4.25,0,6.76,2.4,7.16,5.22h-3.58a3.37,3.37,0,0,0-3.63-2.42c-3.4,0-4.37,2.85-4.37,5.76s1.11,5.66,4.39,5.66a3.27,3.27,0,0,0,3.62-3.61v-.15h-3.63V353.8h7.14Z"/><path class="cls-1" d="M285.91,346.51h3.58V353h6.66v-6.45h3.58v16.55h-3.58V355.9h-6.66v7.16h-3.58Z"/><path class="cls-1" d="M72.16,386.75c.37,1.66,1.57,2.39,3.48,2.39s2.73-.76,2.73-2-.8-1.93-3.63-2.59c-4.5-1.05-5.62-2.69-5.62-4.93,0-2.88,2.16-4.84,6.08-4.84,4.39,0,6.14,2.36,6.38,4.78H78c-.17-1-.73-2.12-2.87-2.12-1.45,0-2.32.6-2.32,1.77s.7,1.62,3.37,2.24C81,382.62,82,384.41,82,386.74c0,3-2.29,5.09-6.66,5.09-4.2,0-6.41-2.06-6.81-5.08Z"/><path class="cls-1" d="M122.92,386.5c-.66,3.08-3,5.33-7.13,5.33-5.25,0-7.73-3.71-7.73-8.42,0-4.53,2.56-8.6,7.9-8.6,4.4,0,6.54,2.59,6.94,5.35h-3.57a3.26,3.26,0,0,0-3.49-2.54c-3,0-4.09,2.65-4.09,5.66,0,2.8,1,5.75,4.19,5.75a3.29,3.29,0,0,0,3.38-2.53Z"/><path class="cls-1" d="M149.68,375.05h3.57v6.46h6.66v-6.46h3.58V391.6h-3.58v-7.16h-6.66v7.16h-3.57Z"/><path class="cls-1" d="M206.67,383.27c0,4.6-2.77,8.57-8.14,8.57-5.19,0-7.91-3.77-7.91-8.52s3-8.51,8.14-8.51C203.6,374.81,206.67,378.2,206.67,383.27Zm-12.36,0c0,3.23,1.42,5.68,4.35,5.68,3.19,0,4.31-2.67,4.31-5.62,0-3.13-1.28-5.59-4.36-5.59S194.31,380,194.31,383.25Z"/><path class="cls-1" d="M249,383.27c0,4.6-2.77,8.57-8.14,8.57-5.19,0-7.91-3.77-7.91-8.52s3-8.51,8.14-8.51C246,374.81,249,378.2,249,383.27Zm-12.36,0c0,3.23,1.42,5.68,4.35,5.68,3.19,0,4.31-2.67,4.31-5.62,0-3.13-1.28-5.59-4.36-5.59S236.67,380,236.67,383.25Z"/><path class="cls-1" d="M276.16,375.05h3.57v13.62H288l-.41,2.93H276.16Z"/><path class="cls-1" d="M38.62,330.56a18.42,18.42,0,0,1-6.2-6.43l3.19-3.88a23.89,23.89,0,0,0,5.44,3.41,13.69,13.69,0,0,0,5.56,1.16c4.17,0,6.26-1.19,6.26-3.59A4.11,4.11,0,0,0,51.05,318a27.82,27.82,0,0,0-6.75-3.3c-3.56-1.31-6-2.83-7.45-4.54a10,10,0,0,1-2.11-6.58,11.7,11.7,0,0,1,2-6.83,12.84,12.84,0,0,1,5.85-4.55,23.27,23.27,0,0,1,9-1.59,26.13,26.13,0,0,1,6.48.69,8.5,8.5,0,0,1,3.94,2l-3.12,8.46a6.58,6.58,0,0,0-3.08-2.26,14.51,14.51,0,0,0-5.09-.75,9.45,9.45,0,0,0-5,1.07,3.61,3.61,0,0,0-.52,5.7,13.07,13.07,0,0,0,4.46,2.26q6.88,2.43,9.7,5.27a9.67,9.67,0,0,1,2.81,7.07,12.16,12.16,0,0,1-1.83,6.69,11.78,11.78,0,0,1-5.3,4.43,19.76,19.76,0,0,1-8.16,1.57A15.55,15.55,0,0,1,38.62,330.56Z"/><path class="cls-1" d="M71.17,332V298.12H61.5l1.16-6.72H89.88l-1.15,6.72H80.21V332Z"/><path class="cls-1" d="M89.25,326.56a5.16,5.16,0,0,1,6.37,0A3.28,3.28,0,0,1,97,329.17a3.19,3.19,0,0,1-1.33,2.57,5.24,5.24,0,0,1-6.37,0,3.2,3.2,0,0,1-1.34-2.57A3.29,3.29,0,0,1,89.25,326.56Z"/><path class="cls-1" d="M111.78,332V293l9.61-2.37L135,318.74V293l9-2.2V332h-9.9l-13.32-26.53V332Z"/><path class="cls-1" d="M158.38,330.12a17.13,17.13,0,0,1-6.23-7.47A26.76,26.76,0,0,1,150,311.5a26.27,26.27,0,0,1,2.2-11,17.25,17.25,0,0,1,6.23-7.41,16.65,16.65,0,0,1,9.35-2.64,17.16,17.16,0,0,1,9.53,2.64,17.49,17.49,0,0,1,6.35,7.41,25.67,25.67,0,0,1,2.25,11,26.15,26.15,0,0,1-2.25,11.15,17.37,17.37,0,0,1-6.35,7.47,17.16,17.16,0,0,1-9.53,2.64A16.65,16.65,0,0,1,158.38,330.12ZM174,320.74q2.26-3.33,2.26-9.24T174,302.4a7.18,7.18,0,0,0-6.26-3.3,6.81,6.81,0,0,0-6,3.3q-2.18,3.32-2.17,9.1t2.17,9.24a6.8,6.8,0,0,0,6,3.33A7.16,7.16,0,0,0,174,320.74Z"/><path class="cls-1" d="M191.77,332V293l9-2.2v3a13.71,13.71,0,0,1,5.1-2.63,24.24,24.24,0,0,1,6.43-.79,17.45,17.45,0,0,1,7.32,1.45,11.47,11.47,0,0,1,4.9,4.06A10.67,10.67,0,0,1,226.3,302a9.08,9.08,0,0,1-1.86,5.71,8.29,8.29,0,0,1-4.92,3.09,10.58,10.58,0,0,1,6.49,3.39,9.62,9.62,0,0,1,2.43,6.58,8.59,8.59,0,0,1-2.84,6.34,19,19,0,0,1-8,4.26,42.88,42.88,0,0,1-11.93,1.5A117.07,117.07,0,0,1,191.77,332Zm23.29-7.62q3.76-1.59,3.76-4.43,0-2.55-3.12-4A20.9,20.9,0,0,0,207,314.4l1.16-6.32a13.18,13.18,0,0,0,6.25-1.22,3.67,3.67,0,0,0,2.26-3.3,3.61,3.61,0,0,0-2.23-3.27,13.29,13.29,0,0,0-6.17-1.19,16.92,16.92,0,0,0-7.47,1.51v25.2c.89.07,2.16.11,3.82.11Q211.29,325.92,215.06,324.33Z"/><path class="cls-1" d="M232.44,332V291.4h25.95l-1.16,6.72H241.47v9.61h15.06l-1.16,6.72h-13.9v10.78h18L258.27,332Z"/><path class="cls-1" d="M262.44,293l9-2.2v2.55a13.66,13.66,0,0,1,4.86-2.29,25.17,25.17,0,0,1,6-.67,14.93,14.93,0,0,1,7.47,1.83,12.56,12.56,0,0,1,5,5.15,16.28,16.28,0,0,1,1.77,7.74,14.09,14.09,0,0,1-2.49,8.37,13.65,13.65,0,0,1-6.9,5L298.59,332h-10.2l-8.92-12.4h-8V332h-9Zm22.3,17.78a6.58,6.58,0,0,0,0-9.93,10,10,0,0,0-6.31-1.77,17.93,17.93,0,0,0-6.95,1.22V312.6h6.95A9.87,9.87,0,0,0,284.74,310.8Z"/><path class="cls-1" d="M306.06,332V298.12h-9.67l1.15-6.72h27.23l-1.16,6.72H315.1V332Z"/><path class="cls-2" d="M0,145.07v45.7s89.42-15.89,176.86,67.57C176.86,258.34,122.21,160,0,145.07Z"/><path class="cls-2" d="M24.84,195.74v27.82s93.4,2,147,45.71C171.89,269.27,140.1,217.6,24.84,195.74Z"/><path class="cls-2" d="M353.72,145.07v45.7s-89.43-15.89-176.86,67.57C176.86,258.34,231.5,160,353.72,145.07Z"/><path class="cls-2" d="M328.88,195.74v27.82s-93.4,2-147,45.71C181.83,269.27,213.62,217.6,328.88,195.74Z"/><path class="cls-1" d="M328.76,134.57q-4.86,1.58-9.62,3.3-.24-2.18-.54-4.35C309.07,63.81,249.13,9.94,176.86,9.94S44.65,63.81,35.11,133.52c-.19,1.45-.37,2.9-.53,4.35q-4.77-1.73-9.62-3.3c.12-1.11.28-2.21.44-3.3C36,57.15,99.86,0,176.86,0S317.75,57.15,328.32,131.27C328.48,132.36,328.64,133.46,328.76,134.57Z"/><path class="cls-1" d="M242.3,160.91c-.45,1.25-1.41.79-2.13.92a17.69,17.69,0,0,1-2.31.17,91.13,91.13,0,0,0-19,2.76l-.15.06c-5.24,1.61-9.87,5.06-13.91,9.61-6.4,7.18-11.35,17.07-15.06,26.68a188.58,188.58,0,0,0-9,31.63l-2.94-9,0-.06-.42-1.33-.27-.74L174,212.1c-3.43-12.78-4-25.89-2.81-39.21,2-22,8.7-42.82,16.89-63.21a5.34,5.34,0,0,1,.72-.94c-.36,6.12-.71,12.06.16,17.94,2.31,15.64,11.84,25.11,26.38,29.91A86.79,86.79,0,0,0,242.3,160.91Z"/><path class="cls-1" d="M123.29,90.45c.52-2,1-4,1.57-6.07.19-.72.34-1.65,1.27-1.73s1.22.85,1.54,1.5a45.7,45.7,0,0,0,8.88,12.19,25.79,25.79,0,0,0,8.83,5.59c2.76,1.07,5.48,2.28,8.13,3.59a10.77,10.77,0,0,1,4.77,4c3.45,5.94,1.82,11.8-1.08,17.25-2.61,4.9-7.3,6.41-12.66,5.82-12.07-1.33-21.48-11-23-23.54A45.25,45.25,0,0,1,123.29,90.45Z"/><path class="cls-1" d="M206.16,149a14.61,14.61,0,0,1-9.66-10.82c-1.46-6.12.21-11.4,5.07-15.36,2.08-1.7,3.48-3.07,2.09-5.88a6.56,6.56,0,0,1-.17-3.26c.13-1.43.47-3.16,1.77-3.71,1.63-.68,2,1.35,2.72,2.24,4.06,4.68,9.3,8.07,13.51,12.58,5,5.38,5.94,11.2,2.65,16.83C220.3,148.15,213.92,151,206.16,149Z"/><path class="cls-3" d="M194.53,67.47c.3,3.65.87,7.3.83,10.94,0,3.39,1.29,5,4.56,5.6,3,.54,6,1.48,9,2.27.73.19,1.65.4,1.72,1.3s-.85,1.21-1.54,1.48c-3.18,1.24-6.34,2.53-9.57,3.6-2.43.81-3.2,2.35-2.95,4.77.33,3.27.56,6.56.77,9.85,0,.74.08,1.72-.73,2s-1.34-.56-1.81-1.13c-2.21-2.59-4.44-5.17-6.54-7.85-1.45-1.85-2.95-2.25-5.13-1.23-2.88,1.35-5.89,2.41-8.86,3.56-.79.3-1.8,1.07-2.44.34-.78-.88.17-1.84.67-2.65,1.51-2.43,2.93-4.92,4.66-7.19,1.9-2.48,1.62-4.52-.41-6.7s-3.89-4.48-5.79-6.76c-.6-.73-1.67-1.53-1-2.54s1.76-.26,2.69,0c3.52.85,7,1.65,10.56,2.49,2.07.5,3-.87,3.89-2.3,2.15-3.38,4.34-6.73,6.52-10.09Z"/><path class="cls-1" d="M171.63,230.29a385.12,385.12,0,0,1-20.12-33.36c-7.4-13.92-14.58-29.85-16.85-42.83a1.5,1.5,0,0,1,0-.2l0,0a12.11,12.11,0,0,0-2.54-5.06c-3.84-5.07-8.62-9.07-13.6-12.87-3.8-2.89-7.73-5.62-11.62-8.42a4.09,4.09,0,0,1,.29-.48c3.2,1.35,6.36,2.81,9.63,4,10.12,3.67,20.53,5.57,31.38,4.43,13.26-1.35,20.57-9.78,25.53-21.08a64.85,64.85,0,0,1,3.19-6.84c.57,2.83-.1,5.54-.65,8.18-2.73,12.91-5.64,25.77-8.46,38.66-2.73,12.57-4.83,25.16-4,38,0,0,0,.24.05.68a11,11,0,0,0,.07,1.12c.06,1.07.18,2.59.34,4.41C165,207.17,167,222.37,171.63,230.29Z"/><path class="cls-1" d="M177.12,252.57l-.26.14-.28.12A191.58,191.58,0,0,0,162,230.09a252.47,252.47,0,0,0-17.21-20.82,252.14,252.14,0,0,0-40.16-35.73c-14.59-10.45-30.53-18.7-46.7-26.25-7.63-3.46-15.4-6.58-23.31-9.42q-4.77-1.73-9.62-3.3-8.79-2.9-17.77-5.42l.1-.6a170.11,170.11,0,0,1,18.11,2.72c3.26.66,6.48,1.39,9.71,2.25a204.3,204.3,0,0,1,25.14,8.3A187.7,187.7,0,0,1,84.77,154.2a262.29,262.29,0,0,1,22.64,15.5A256.19,256.19,0,0,1,147,207.3a254.51,254.51,0,0,1,16.42,21.76,195.29,195.29,0,0,1,13.45,23C176.94,252.21,177,252.39,177.12,252.57Z"/><path class="cls-1" d="M346.52,129.15q-9,2.52-17.76,5.42-4.86,1.58-9.62,3.3c-7.91,2.84-15.68,6-23.31,9.42-16.17,7.55-32.11,15.8-46.7,26.25a264.37,264.37,0,0,0-57.37,56.55,194.3,194.3,0,0,0-14.64,22.74l-.26-.12-.28-.14c.08-.18.18-.36.28-.54,0,0,0,0,0,0a190.74,190.74,0,0,1,13.45-22.95,249,249,0,0,1,56-59.36,260.6,260.6,0,0,1,22.63-15.5,187.82,187.82,0,0,1,24.53-12.38,204.72,204.72,0,0,1,25.13-8.3c3.24-.86,6.46-1.59,9.72-2.25a169.93,169.93,0,0,1,18.1-2.72Z"/><path class="cls-3" d="M156.86,49c.13,1.58.38,3.17.36,4.76a2.09,2.09,0,0,0,2,2.43c1.32.24,2.6.65,3.9,1,.32.09.72.18.75.57s-.37.53-.67.65c-1.39.53-2.76,1.09-4.17,1.56A1.71,1.71,0,0,0,157.73,62c.14,1.42.24,2.85.33,4.28,0,.33,0,.75-.32.89s-.58-.24-.79-.49c-.95-1.13-1.93-2.25-2.84-3.42a1.6,1.6,0,0,0-2.23-.53c-1.26.59-2.57,1.05-3.86,1.55-.34.13-.78.46-1.06.15s.08-.81.29-1.16c.66-1,1.28-2.14,2-3.13a2,2,0,0,0-.18-2.92c-.88-.94-1.69-1.94-2.52-2.94-.26-.31-.73-.66-.45-1.1s.77-.12,1.17,0l4.6,1.09c.9.21,1.29-.38,1.69-1,.94-1.47,1.89-2.92,2.84-4.39Z"/><path class="cls-3" d="M189.3,45.69c.11,1.32.32,2.65.3,4a1.76,1.76,0,0,0,1.66,2c1.09.2,2.16.54,3.24.82.27.07.6.15.63.47s-.31.45-.56.54c-1.15.45-2.3.92-3.47,1.31A1.43,1.43,0,0,0,190,56.56c.13,1.19.21,2.38.29,3.57,0,.27,0,.63-.27.74s-.49-.2-.66-.41c-.8-.94-1.61-1.87-2.37-2.85a1.33,1.33,0,0,0-1.86-.44c-1,.49-2.14.87-3.21,1.29-.29.11-.66.39-.89.12s.06-.67.24-1c.55-.88,1.07-1.78,1.7-2.61a1.66,1.66,0,0,0-.15-2.43c-.74-.79-1.42-1.62-2.1-2.45-.22-.26-.61-.55-.38-.92s.64-.1,1,0l3.83.9c.75.18,1.08-.32,1.41-.84.78-1.22,1.58-2.44,2.37-3.66Z"/><path class="cls-3" d="M218.43,47.49c.09,1,.25,2,.24,3a1.33,1.33,0,0,0,1.26,1.55c.83.15,1.65.41,2.47.63.2.05.46.11.47.36s-.23.33-.42.41c-.88.34-1.75.7-2.65,1a1.09,1.09,0,0,0-.81,1.32c.09.91.15,1.82.21,2.72,0,.21,0,.48-.2.57s-.37-.16-.5-.31c-.61-.72-1.23-1.43-1.81-2.17a1,1,0,0,0-1.42-.34c-.79.37-1.63.66-2.45,1-.21.08-.49.3-.67.09s0-.51.18-.73c.42-.67.81-1.36,1.29-2a1.25,1.25,0,0,0-.11-1.85c-.56-.6-1.08-1.24-1.6-1.87-.17-.2-.46-.42-.29-.7s.49-.07.75,0c1,.24,1.94.46,2.92.69.57.14.82-.24,1.07-.64l1.8-2.79Z"/><path class="cls-3" d="M168.72,33.16c.06.71.17,1.43.16,2.14a1,1,0,0,0,.9,1.1c.59.11,1.17.29,1.75.44.14,0,.33.08.34.26s-.17.24-.3.29c-.63.24-1.25.5-1.88.71a.76.76,0,0,0-.58.93c.07.64.11,1.29.15,1.93,0,.15,0,.34-.14.4s-.26-.11-.36-.22c-.43-.51-.87-1-1.28-1.54a.72.72,0,0,0-1-.24c-.57.27-1.16.47-1.74.7-.16.06-.35.21-.48.07s0-.37.13-.52c.3-.48.58-1,.92-1.41a.91.91,0,0,0-.08-1.32c-.4-.42-.77-.88-1.14-1.32-.12-.15-.33-.3-.2-.5s.34-.05.53,0l2.07.49c.4.1.58-.17.76-.45.42-.66.85-1.32,1.28-2Z"/><path class="cls-3" d="M207.29,33.16c.06.71.17,1.43.17,2.14a.94.94,0,0,0,.89,1.1c.59.11,1.17.29,1.75.44.15,0,.33.08.34.26s-.16.24-.3.29c-.62.24-1.24.5-1.88.71a.78.78,0,0,0-.58.93c.07.64.11,1.29.16,1.93,0,.15,0,.34-.15.4s-.26-.11-.35-.22c-.43-.51-.87-1-1.28-1.54a.73.73,0,0,0-1-.24c-.57.27-1.16.47-1.74.7-.15.06-.35.21-.48.07s0-.37.14-.52a14.75,14.75,0,0,1,.91-1.41.9.9,0,0,0-.08-1.32c-.4-.42-.76-.88-1.14-1.32-.11-.15-.32-.3-.2-.5s.35-.05.53,0l2.07.49c.41.1.58-.17.76-.45.42-.66.85-1.32,1.28-2Z"/><path class="cls-3" d="M188.44,21.17c.06.63.15,1.26.15,1.89a.84.84,0,0,0,.79,1c.52.09,1,.25,1.54.39.13,0,.29.07.3.22s-.15.21-.27.26c-.54.21-1.09.44-1.65.62a.69.69,0,0,0-.51.83c.06.56.1,1.13.13,1.7,0,.13,0,.3-.12.35s-.24-.09-.32-.19c-.38-.45-.76-.89-1.13-1.36a.64.64,0,0,0-.89-.21c-.49.23-1,.42-1.53.61-.13.06-.31.19-.42.06s0-.32.12-.45a14.73,14.73,0,0,1,.8-1.25.79.79,0,0,0-.07-1.16c-.35-.37-.67-.77-1-1.17-.1-.12-.29-.26-.18-.44s.31,0,.47,0l1.82.43c.36.08.52-.15.68-.4.37-.58.75-1.16,1.12-1.75Z"/></g></g></svg>