<svg width="110" height="39" viewBox="0 0 110 39" fill="none" xmlns="http://www.w3.org/2000/svg">
<g clip-path="url(#clip0)">
<path d="M32.918 26.3723V11.893H39.4821C41.1807 11.893 42.4722 12.3731 43.3564 13.3334C44.1299 14.1582 44.5166 15.2259 44.5166 16.5366C44.5166 17.8472 44.1299 18.9149 43.3564 19.7397C42.4728 20.7 41.1814 21.1801 39.4821 21.1801H36.118V26.3703L32.918 26.3723ZM36.118 14.3684V18.7057H38.6066C39.4747 18.7057 40.1265 18.5782 40.5618 18.3233C41.1334 17.9716 41.4192 17.3764 41.4192 16.5376C41.4192 15.6987 41.1334 15.1035 40.5618 14.7518C40.1271 14.4975 39.475 14.3684 38.6066 14.3684H36.118Z" fill="#0967D2"/>
<path d="M45.7415 26.3706V15.8862H48.4937V17.8352H48.5339C48.8027 17.1743 49.2733 16.6141 49.8794 16.2336C50.4745 15.8293 51.1774 15.6108 51.898 15.606C52.113 15.6059 52.3266 15.6397 52.531 15.7061V18.3827C52.1887 18.3106 51.8393 18.277 51.4895 18.2826C49.5875 18.2826 48.6363 19.404 48.6356 21.6469V26.3726L45.7415 26.3706Z" fill="#0967D2"/>
<path d="M53.2434 21.1414C53.2434 19.4658 53.7399 18.1238 54.7327 17.1155C55.7256 16.1071 57.0439 15.604 58.6875 15.606C60.3459 15.606 61.6712 16.1091 62.6634 17.1155C63.6556 18.1218 64.1514 19.4638 64.1507 21.1414C64.1507 22.8051 63.655 24.1397 62.6634 25.1454C61.6719 26.151 60.3466 26.6545 58.6875 26.6559C57.0419 26.6559 55.7236 26.1527 54.7327 25.1464C53.7419 24.14 53.2454 22.8051 53.2434 21.1414ZM56.1385 21.1414C56.1385 22.101 56.322 22.8648 56.689 23.4327C57.1244 24.1354 57.7906 24.4867 58.6875 24.4867C60.3989 24.4867 61.2549 23.3716 61.2556 21.1414C61.2556 18.8972 60.3996 17.7748 58.6875 17.7741C56.9889 17.7741 56.1392 18.8965 56.1385 21.1414Z" fill="#0967D2"/>
<path d="M65.6587 26.3723V11.893H71.937C73.9073 11.893 75.4772 12.4882 76.6465 13.6787C77.9104 14.934 78.5427 16.7247 78.5434 19.051C78.5434 21.2412 77.9996 22.9849 76.9122 24.2822C75.7428 25.6756 74.0845 26.3723 71.937 26.3723H65.6587ZM68.8587 14.5696V23.6956H71.7126C72.7457 23.6956 73.5816 23.3713 74.2203 22.7227C74.969 21.9666 75.343 20.8441 75.3423 19.3553C75.3423 17.8018 75.0431 16.6397 74.4447 15.8689C73.7645 15.0014 72.6636 14.5676 71.142 14.5676L68.8587 14.5696Z" fill="#0967D2"/>
<path d="M89.7783 21.8321H82.1737C82.2549 23.6018 83.1176 24.4867 84.7619 24.4867C85.2988 24.4936 85.8251 24.3383 86.2714 24.0413C86.693 23.784 86.9496 23.4797 87.0462 23.1284H89.5942C88.8193 25.4814 87.1757 26.6572 84.6633 26.6558C83.0183 26.6558 81.7101 26.1463 80.7387 25.1273C79.7673 24.1083 79.2806 22.7797 79.2786 21.1414C79.2786 19.5472 79.778 18.2259 80.7769 17.1775C81.7759 16.1291 83.0706 15.6053 84.6613 15.606C86.3733 15.606 87.6983 16.2399 88.6362 17.5078C89.5056 18.6743 89.8863 20.1157 89.7783 21.8321ZM82.1737 20.0053H86.8822C86.6105 18.5178 85.8427 17.7741 84.5788 17.7741C83.7636 17.7741 83.1384 18.045 82.703 18.5869C82.3772 18.9904 82.1915 19.488 82.1737 20.0053Z" fill="#0967D2"/>
<path d="M100.215 15.8865L96.6472 26.3709H93.427L89.8174 15.8865H92.8544L95.0773 23.0446H95.1186L97.3405 15.8865H100.215Z" fill="#0967D2"/>
<path d="M100.236 22.9652H102.988C103.002 23.5611 103.233 24.0139 103.682 24.3236C104.075 24.5965 104.585 24.7326 105.21 24.732C105.65 24.746 106.085 24.6474 106.475 24.4457C106.895 24.2044 107.106 23.8531 107.106 23.3916C107.106 22.9912 106.82 22.6609 106.25 22.4187C105.842 22.2438 105.033 22.0273 103.824 21.769C102.791 21.5528 102.023 21.2692 101.52 20.9182C100.828 20.4577 100.481 19.8111 100.481 18.9703C100.481 16.7261 102.01 15.6046 105.067 15.606C107.976 15.606 109.525 16.7211 109.715 18.9513H106.964C106.895 18.0033 106.237 17.5329 104.986 17.5329C103.912 17.5329 103.376 17.8568 103.376 18.5048C103.376 18.9513 103.716 19.2956 104.395 19.5378C104.478 19.5659 105.232 19.7417 106.659 20.0654C107.705 20.3096 108.472 20.6076 108.962 20.9592C109.656 21.4457 110.003 22.1277 110.001 23.0053C110.001 24.2765 109.498 25.2298 108.492 25.8651C107.662 26.3916 106.561 26.6552 105.188 26.6559C103.816 26.6565 102.701 26.3866 101.845 25.8461C100.827 25.2114 100.291 24.2511 100.236 22.9652Z" fill="#0967D2"/>
<path d="M18.6536 20.6328C18.6528 20.738 18.6755 20.842 18.7201 20.9373C18.7647 21.0326 18.8301 21.1169 18.9115 21.184C18.9929 21.251 19.0883 21.2993 19.1908 21.3251C19.2932 21.351 19.4002 21.3538 19.5039 21.3335C21.8486 20.865 28.1813 19.0242 27.4376 12.8581C26.9526 9.27159 21.4712 8.48282 19.4214 8.30864C19.3231 8.30072 19.2243 8.31323 19.1312 8.34537C19.038 8.37752 18.9526 8.42859 18.8804 8.49534C18.8082 8.56209 18.7507 8.64306 18.7117 8.7331C18.6726 8.82315 18.6528 8.92028 18.6536 9.01834V20.6328Z" fill="#0967D2"/>
<path d="M14.1577 6.01555L1.33237 0.0666804C1.22377 0.0164021 1.10422 -0.00595077 0.984682 0.00167156C0.865144 0.0092939 0.749442 0.0466475 0.648188 0.110307C0.546934 0.173966 0.463368 0.261894 0.405153 0.366027C0.346937 0.470159 0.315937 0.587164 0.314994 0.706311L2.06433e-05 37.8289C-0.000896282 37.949 0.0287463 38.0674 0.0861886 38.173C0.143631 38.2786 0.227005 38.368 0.328549 38.433C0.430094 38.4979 0.546506 38.5362 0.666948 38.5444C0.787391 38.5525 0.907947 38.5302 1.01739 38.4796L14.1577 32.3835C14.2814 32.3267 14.3861 32.2357 14.4594 32.1215C14.5327 32.0072 14.5715 31.8745 14.5713 31.7389V6.66118C14.5712 6.52558 14.5323 6.3928 14.459 6.27844C14.3858 6.16407 14.2812 6.07287 14.1577 6.01555ZM3.40938 21.3467C3.07401 21.3467 2.74618 21.2477 2.46734 21.0624C2.1885 20.8771 1.97116 20.6137 1.84283 20.3055C1.71449 19.9973 1.68091 19.6581 1.74634 19.3309C1.81176 19.0038 1.97325 18.7032 2.21039 18.4674C2.44753 18.2315 2.74966 18.0708 3.07858 18.0057C3.40749 17.9407 3.74843 17.9741 4.05826 18.1017C4.3681 18.2294 4.63292 18.4456 4.81923 18.7229C5.00555 19.0003 5.105 19.3264 5.105 19.66C5.105 20.1073 4.92635 20.5363 4.60836 20.8527C4.29037 21.169 3.85908 21.3467 3.40938 21.3467Z" fill="#0967D2"/>
</g>
<defs>
<clipPath id="clip0">
<rect width="110" height="38.547" fill="white"/>
</clipPath>
</defs>
</svg>
