<svg version="1" xmlns="http://www.w3.org/2000/svg" width="588" height="588" viewBox="0 0 441.000000 441.000000"><path d="M10.8 55.8c-3.2.4-7.4 4.4-8 7.5-.2 1.2-.3 33.1-.3 70.9V203l3.3 3.2 3.2 3.3h34.9c33.4 0 35-.1 37.1-2 1.2-1.1 2.6-2.8 3.2-3.9.7-1.2 1-22.4 1-60 0-63.5 0-63.5 5.6-65.9 2.1-.9 13.9-1.2 43.6-1.2 35.8 0 40.6-.2 40-1.5-1.2-2.8-1.6-12.6-.7-16l1-3.5H94.1c-44.3 0-81.8.1-83.3.3zM193.1 56.6c-7 3.1-7.8 13.8-1.2 18 2.4 1.7 8.3 1.8 80.6 1.9 57 .1 78.6.4 80.1 1.3 5.1 2.8 5.2 3.3 5.1 65.9 0 64-.2 61.5 6.1 64.6 4.1 2 68.7 1.7 71.9-.3 4.9-3.1 4.8-2.3 4.8-76.1-.1-75.9.2-72.5-6-75.1-4.1-1.8-237.4-1.9-241.4-.2zM8.3 221c-4.6 1.9-6.9 8.6-4.8 13.7 2.8 6.5.2 6.3 76 6.3 76 0 73.2-.2 75.5 6.3.6 1.9 1 22.2 1 55.9 0 47.6-.2 53.3-1.7 55.8-.9 1.6-2.7 3.3-4 3.9-1.7.8-24.1 1.1-71.9 1.1-75.4 0-73.7-.1-76.2 5.5-2.4 5.3-.9 11.1 3.6 13.7 2.4 1.4 15 1.6 114.6 1.6l111.9-.1 3.1-2.8 3.1-2.7.2-75.5.2-75.5-2.2-3.3c-1.2-1.8-3.3-3.6-4.7-3.9-3.9-1-221.2-1-223.7 0zM257.6 222.8c-6.3 2.5-6-1.6-6.1 80.2 0 73.3 0 74.5 2 77.5 2.8 4.1 7.9 5.4 12.7 3.1 5.9-2.8 6.1-4.4 6.2-37l.1-29.1 32.2-.1c29.6-.2 32.3-.3 34.7-2 3.8-2.8 5-6.4 3.7-11.2-2.1-7.6-2.3-7.6-38.6-7.7h-32v-54l39 .1c43.4 0 43.3 0 45.4 6.7.6 2 .9 27.5.9 64.9-.1 45.7.2 62.4 1.1 64.5 2.4 5.9 3.3 6.1 39.8 6.1 37.1 0 38.8-.3 40.8-6.4.6-2 1-29.6 1-75.6 0-79.9.3-75.2-6.2-79.5-2.5-1.7-8.2-1.8-88.1-1.8-66.5 0-86.1.3-88.6 1.3z"/></svg>